<svg width="23" height="17" viewBox="0 0 23 17" fill="none" xmlns="http://www.w3.org/2000/svg">
<path d="M11.5 17C3.9665 17 0.2378 9.22034 0.0856079 8.89104C-0.028536 8.64407 -0.028536 8.31477 0.0856079 8.0678C0.2378 7.7385 3.9665 0 11.5 0C19.0335 0 22.7622 7.7385 22.9144 8.0678C23.0285 8.31477 23.0285 8.64407 22.9144 8.89104C22.7622 9.22034 19.0335 17 11.5 17ZM1.83581 8.47942C2.67287 10.0024 5.945 15.1477 11.5 15.1477C17.055 15.1477 20.3271 10.0024 21.1642 8.47942C20.3271 6.95642 17.055 1.81114 11.5 1.81114C5.945 1.81114 2.67287 6.95642 1.83581 8.47942Z" fill="#787880"/>
<path d="M11.5 11.9785C9.71175 11.9785 8.26593 10.4144 8.26593 8.47975C8.26593 6.54512 9.71175 4.98096 11.5 4.98096C13.2883 4.98096 14.7341 6.54512 14.7341 8.47975C14.7341 10.4144 13.2883 11.9785 11.5 11.9785ZM11.5 6.83326C10.663 6.83326 9.97809 7.57418 9.97809 8.47975C9.97809 9.38532 10.663 10.1262 11.5 10.1262C12.3371 10.1262 13.0219 9.38532 13.0219 8.47975C13.0219 7.57418 12.3371 6.83326 11.5 6.83326Z" fill="#787880"/>
</svg>
