<svg width="23" height="24" viewBox="0 0 23 24" fill="none" xmlns="http://www.w3.org/2000/svg">
<path d="M11.5 22C3.9665 22 0.2378 14.2203 0.0856079 13.891C-0.028536 13.6441 -0.028536 13.3148 0.0856079 13.0678C0.2378 12.7385 3.9665 5 11.5 5C19.0335 5 22.7622 12.7385 22.9144 13.0678C23.0285 13.3148 23.0285 13.6441 22.9144 13.891C22.7622 14.2203 19.0335 22 11.5 22ZM1.83581 13.4794C2.67287 15.0024 5.945 20.1477 11.5 20.1477C17.055 20.1477 20.3271 15.0024 21.1642 13.4794C20.3271 11.9564 17.055 6.81114 11.5 6.81114C5.945 6.81114 2.67287 11.9564 1.83581 13.4794Z" fill="#787880"/>
<path d="M11.5 16.9785C9.71175 16.9785 8.26593 15.4144 8.26593 13.4797C8.26593 11.5451 9.71175 9.98096 11.5 9.98096C13.2883 9.98096 14.7341 11.5451 14.7341 13.4797C14.7341 15.4144 13.2883 16.9785 11.5 16.9785ZM11.5 11.8333C10.663 11.8333 9.97809 12.5742 9.97809 13.4797C9.97809 14.3853 10.663 15.1262 11.5 15.1262C12.3371 15.1262 13.0219 14.3853 13.0219 13.4797C13.0219 12.5742 12.3371 11.8333 11.5 11.8333Z" fill="#787880"/>
<line x1="1.27664" y1="23.3095" x2="22.2766" y2="1.30952" stroke="#747474" stroke-width="2"/>
<line x1="1.27664" y1="23.3095" x2="22.2766" y2="1.30952" stroke="#747474" stroke-width="2"/>
</svg>
